<svg width="900" height="340" viewBox="0 0 900 340" xmlns="http://www.w3.org/2000/svg">
  <defs>
    <linearGradient id="rowBg" x1="0%" y1="0%" x2="100%" y2="0%">
      <stop offset="0%"   style="stop-color:#141414;stop-opacity:1"/>
      <stop offset="100%" style="stop-color:#111111;stop-opacity:1"/>
    </linearGradient>
    <linearGradient id="headerBg" x1="0%" y1="0%" x2="100%" y2="0%">
      <stop offset="0%"   style="stop-color:#1c1c1c;stop-opacity:1"/>
      <stop offset="100%" style="stop-color:#181818;stop-opacity:1"/>
    </linearGradient>
    <filter id="glow">
      <feGaussianBlur stdDeviation="3" result="b"/>
      <feMerge><feMergeNode in="b"/><feMergeNode in="SourceGraphic"/></feMerge>
    </filter>
  </defs>

  <style>
    @keyframes barGrow {
      0%   { width: 0; }
      100% { width: var(--w); }
    }
    @keyframes fadeIn {
      0%   { opacity: 0; }
      100% { opacity: 1; }
    }
    @keyframes borderPulse {
      0%, 100% { opacity: 0.5; }
      50%       { opacity: 1; }
    }
  </style>

  <!-- Background -->
  <rect width="900" height="340" fill="#0a0a0a"/>

  <!-- Outer border -->
  <rect x="10" y="10" width="880" height="320" rx="6" ry="6"
        fill="none" stroke="#2a2a2a" stroke-width="1"
        style="animation: borderPulse 4s ease-in-out infinite;"/>

  <!-- Section label -->
  <text x="30" y="38" font-family="'Courier New', monospace" font-size="11"
        fill="#444444" letter-spacing="3">STACK TOPOLOGY</text>
  <line x1="10" y1="48" x2="890" y2="48" stroke="#1e1e1e" stroke-width="1"/>

  <!-- Header row -->
  <rect x="10" y="48" width="880" height="32" fill="url(#headerBg)"/>
  <text x="30"  y="69" font-family="'Courier New', monospace" font-size="11" fill="#555555" letter-spacing="2">LAYER</text>
  <text x="220" y="69" font-family="'Courier New', monospace" font-size="11" fill="#555555" letter-spacing="2">TECHNOLOGY</text>
  <text x="500" y="69" font-family="'Courier New', monospace" font-size="11" fill="#555555" letter-spacing="2">SIGNAL</text>
  <text x="760" y="69" font-family="'Courier New', monospace" font-size="11" fill="#555555" letter-spacing="2">TAG</text>

  <!-- Divider after header -->
  <line x1="10" y1="80" x2="890" y2="80" stroke="#222222" stroke-width="1"/>

  <!-- BACKEND label -->
  <rect x="10" y="80" width="880" height="24" fill="#0f0f0f"/>
  <text x="30" y="97" font-family="'Courier New', monospace" font-size="10" fill="#333333" letter-spacing="3">BACKEND</text>

  <!-- Row: Python -->
  <rect x="10" y="104" width="880" height="34" fill="url(#rowBg)"/>
  <text x="30"  y="126" font-family="'Courier New', monospace" font-size="11" fill="#888888">·············</text>
  <text x="220" y="126" font-family="'Courier New', monospace" font-size="12" fill="#bbbbbb">Python</text>
  <!-- Bar -->
  <rect x="500" y="116" width="144" height="8" rx="2" fill="#2a2a2a"/>
  <rect x="500" y="116" width="144" height="8" rx="2" fill="#555555">
    <animate attributeName="width" from="0" to="144" dur="1.5s" fill="freeze"/>
  </rect>
  <text x="760" y="126" font-family="'Courier New', monospace" font-size="10" fill="#555555">Primary</text>

  <!-- Row: AI/ML -->
  <rect x="10" y="138" width="880" height="34" fill="#0e0e0e"/>
  <text x="30"  y="160" font-family="'Courier New', monospace" font-size="11" fill="#888888">·············</text>
  <text x="220" y="160" font-family="'Courier New', monospace" font-size="12" fill="#bbbbbb">AI / ML Systems</text>
  <rect x="500" y="150" width="144" height="8" rx="2" fill="#2a2a2a"/>
  <rect x="500" y="150" width="132" height="8" rx="2" fill="#484848">
    <animate attributeName="width" from="0" to="132" dur="1.5s" begin="0.1s" fill="freeze"/>
  </rect>
  <text x="760" y="160" font-family="'Courier New', monospace" font-size="10" fill="#555555">Precise</text>

  <!-- Row: Algorithm -->
  <rect x="10" y="172" width="880" height="34" fill="url(#rowBg)"/>
  <text x="30"  y="194" font-family="'Courier New', monospace" font-size="11" fill="#888888">·············</text>
  <text x="220" y="194" font-family="'Courier New', monospace" font-size="12" fill="#bbbbbb">Algorithm Design</text>
  <rect x="500" y="184" width="144" height="8" rx="2" fill="#2a2a2a"/>
  <rect x="500" y="184" width="120" height="8" rx="2" fill="#404040">
    <animate attributeName="width" from="0" to="120" dur="1.5s" begin="0.2s" fill="freeze"/>
  </rect>
  <text x="760" y="194" font-family="'Courier New', monospace" font-size="10" fill="#555555">Custom</text>

  <!-- INFRASTRUCTURE label -->
  <line x1="10" y1="206" x2="890" y2="206" stroke="#1a1a1a" stroke-width="1"/>
  <rect x="10" y="206" width="880" height="24" fill="#0f0f0f"/>
  <text x="30" y="223" font-family="'Courier New', monospace" font-size="10" fill="#333333" letter-spacing="3">INFRASTRUCTURE</text>

  <!-- Row: Linux -->
  <rect x="10" y="230" width="880" height="34" fill="url(#rowBg)"/>
  <text x="30"  y="252" font-family="'Courier New', monospace" font-size="11" fill="#888888">·············</text>
  <text x="220" y="252" font-family="'Courier New', monospace" font-size="12" fill="#bbbbbb">Linux</text>
  <rect x="500" y="242" width="144" height="8" rx="2" fill="#2a2a2a"/>
  <rect x="500" y="242" width="144" height="8" rx="2" fill="#555555">
    <animate attributeName="width" from="0" to="144" dur="1.5s" begin="0.3s" fill="freeze"/>
  </rect>
  <text x="760" y="252" font-family="'Courier New', monospace" font-size="10" fill="#555555">Native</text>

  <!-- Row: Docker -->
  <rect x="10" y="264" width="880" height="34" fill="#0e0e0e"/>
  <text x="30"  y="286" font-family="'Courier New', monospace" font-size="11" fill="#888888">·············</text>
  <text x="220" y="286" font-family="'Courier New', monospace" font-size="12" fill="#bbbbbb">Docker / CI/CD</text>
  <rect x="500" y="276" width="144" height="8" rx="2" fill="#2a2a2a"/>
  <rect x="500" y="276" width="108" height="8" rx="2" fill="#404040">
    <animate attributeName="width" from="0" to="108" dur="1.5s" begin="0.4s" fill="freeze"/>
  </rect>
  <text x="760" y="286" font-family="'Courier New', monospace" font-size="10" fill="#555555">Hardened</text>

  <!-- Shadow stack row -->
  <line x1="10" y1="298" x2="890" y2="298" stroke="#1a1a1a" stroke-width="1"/>
  <rect x="10" y="298" width="880" height="32" fill="#0c0c0c"/>
  <text x="30"  y="319" font-family="'Courier New', monospace" font-size="11" fill="#333333">·············</text>
  <text x="220" y="319" font-family="'Courier New', monospace" font-size="11" fill="#333333">▓▓▓▓  SHADOW STACK</text>
  <text x="760" y="319" font-family="'Courier New', monospace" font-size="10" fill="#2e2e2e">Private</text>

  <!-- Bottom border -->
  <line x1="10" y1="330" x2="890" y2="330" stroke="#1e1e1e" stroke-width="1"/>
</svg>
