<!-- Proprietary asset. Reuse, modification, or redistribution is prohibited without prior written permission. -->
<svg width="100%" viewBox="0 0 900 500" xmlns="http://www.w3.org/2000/svg">
<defs>
  <linearGradient id="eT" x1="0%" y1="0%" x2="100%" y2="0%"><stop offset="0%" stop-color="#3AAFCC" stop-opacity="0"/><stop offset="30%" stop-color="#3AAFCC" stop-opacity="0.8"/><stop offset="70%" stop-color="#3AAFCC" stop-opacity="0.8"/><stop offset="100%" stop-color="#3AAFCC" stop-opacity="0"/></linearGradient>
  <linearGradient id="eB" x1="0%" y1="0%" x2="100%" y2="0%"><stop offset="0%" stop-color="#3AAFCC" stop-opacity="0"/><stop offset="30%" stop-color="#3AAFCC" stop-opacity="0.2"/><stop offset="70%" stop-color="#3AAFCC" stop-opacity="0.2"/><stop offset="100%" stop-color="#3AAFCC" stop-opacity="0"/></linearGradient>
  <linearGradient id="deskG" x1="0%" y1="0%" x2="0%" y2="100%"><stop offset="0%" stop-color="#0D1E2E"/><stop offset="100%" stop-color="#070D18"/></linearGradient>
  <linearGradient id="monG" x1="0%" y1="0%" x2="0%" y2="100%"><stop offset="0%" stop-color="#111828"/><stop offset="100%" stop-color="#0A1018"/></linearGradient>
  <linearGradient id="scrG" x1="0%" y1="0%" x2="100%" y2="100%"><stop offset="0%" stop-color="#060D16"/><stop offset="100%" stop-color="#030810"/></linearGradient>
  <linearGradient id="lapG" x1="0%" y1="0%" x2="0%" y2="100%"><stop offset="0%" stop-color="#0E1C2A"/><stop offset="100%" stop-color="#080F18"/></linearGradient>
  <radialGradient id="monGlow" cx="50%" cy="50%" r="50%"><stop offset="0%" stop-color="#0D2540" stop-opacity="0.55"/><stop offset="100%" stop-color="#070B15" stop-opacity="0"/></radialGradient>
  <radialGradient id="cofTop" cx="50%" cy="40%" r="50%"><stop offset="0%" stop-color="#5C2D0A"/><stop offset="60%" stop-color="#3A1A05"/><stop offset="100%" stop-color="#2A1004"/></radialGradient>
  <radialGradient id="skinG" cx="50%" cy="40%" r="60%"><stop offset="0%" stop-color="#E0A882"/><stop offset="100%" stop-color="#C8855A"/></radialGradient>
  <filter id="monShadow"><feGaussianBlur stdDeviation="10" result="b"/><feMerge><feMergeNode in="b"/><feMergeNode in="SourceGraphic"/></feMerge></filter>
  <filter id="speechGlow"><feGaussianBlur stdDeviation="4" result="b"/><feMerge><feMergeNode in="b"/><feMergeNode in="SourceGraphic"/></feMerge></filter>
  <filter id="thoughtGlow"><feGaussianBlur stdDeviation="3" result="b"/><feMerge><feMergeNode in="b"/><feMergeNode in="SourceGraphic"/></feMerge></filter>
  <filter id="coffeeGlow"><feGaussianBlur stdDeviation="3" result="b"/><feMerge><feMergeNode in="b"/><feMergeNode in="SourceGraphic"/></feMerge></filter>
</defs>

<style>
/* steam */
@keyframes steam{0%{opacity:0;transform:translateY(0) scaleX(1)}30%{opacity:0.75}70%{opacity:0.2;transform:translateY(-22px) scaleX(1.5)}100%{opacity:0;transform:translateY(-30px) scaleX(0.5)}}
/* LLM pulse */
@keyframes llmP{0%,100%{opacity:.5}50%{opacity:1}}
/* brain nodes */
@keyframes brN{0%,100%{opacity:.3}50%{opacity:1}}
/* cursor blink */
@keyframes blink{0%,49%{opacity:1}50%,100%{opacity:0}}
/* dash flow */
@keyframes dF{from{stroke-dashoffset:30}to{stroke-dashoffset:0}}
/* screen scan */
@keyframes scL{0%{transform:translateY(0);opacity:.04}100%{transform:translateY(236px);opacity:.04}}
/* speech bubble glow on/off */
@keyframes speechGlowPulse{0%,40%,100%{opacity:0.85;filter:drop-shadow(0 0 4px #3AAFCC)}50%,90%{opacity:1;filter:drop-shadow(0 0 14px #3AAFCC) drop-shadow(0 0 6px #F59E0B)}}
/* thought bubble float */
@keyframes thoughtFloat{0%,100%{transform:translateY(0);opacity:0.7}50%{transform:translateY(-4px);opacity:1}}
/* typing hands bounce */
@keyframes typeHand{0%,100%{transform:translateY(0)}15%{transform:translateY(-3px)}30%{transform:translateY(0)}45%{transform:translateY(-2px)}60%{transform:translateY(0)}}
/* coffee cup glow */
@keyframes cofGlow{0%,100%{filter:drop-shadow(0 0 3px #3AAFCC44)}50%{filter:drop-shadow(0 0 8px #3AAFCC99)}}
/* screen content lines typewriter */
@keyframes tl1{0%,10%{opacity:0}12%,100%{opacity:1}}
@keyframes tl2{0%,20%{opacity:0}22%,100%{opacity:1}}
@keyframes tl3{0%,30%{opacity:0}32%,100%{opacity:1}}
@keyframes tl4{0%,40%{opacity:0}42%,100%{opacity:1}}
@keyframes tl5{0%,50%{opacity:0}52%,100%{opacity:1}}
@keyframes tl6{0%,60%{opacity:0}62%,100%{opacity:1}}
@keyframes tl7{0%,70%{opacity:0}72%,100%{opacity:1}}
@keyframes tl8{0%,80%{opacity:0}82%,100%{opacity:1}}
@keyframes tl9{0%,88%{opacity:0}90%,100%{opacity:1}}
/* laptop terminal lines */
@keyframes tt1{0%,5%{opacity:0}8%,100%{opacity:1}}
@keyframes tt2{0%,18%{opacity:0}21%,100%{opacity:1}}
@keyframes tt3{0%,32%{opacity:0}35%,100%{opacity:1}}
@keyframes tt4{0%,46%{opacity:0}49%,100%{opacity:1}}
@keyframes tt5{0%,60%{opacity:0}63%,100%{opacity:1}}
@keyframes tt6{0%,74%{opacity:0}77%,100%{opacity:1}}
/* coffee cup liquid swirl */
@keyframes swirl{0%{transform:rotate(0deg) scale(1)}100%{transform:rotate(360deg) scale(1)}}
/* "lets build" text flash */
@keyframes letsBuild{0%,45%,55%,100%{opacity:1}48%,52%{opacity:0.2}}

.st1{animation:steam 2.4s ease-out 0s infinite}
.st2{animation:steam 2.4s ease-out .7s infinite}
.st3{animation:steam 2.4s ease-out 1.4s infinite}
.l1{animation:llmP 2.5s ease-in-out 0s infinite}
.l2{animation:llmP 2.5s ease-in-out .5s infinite}
.l3{animation:llmP 2.5s ease-in-out 1s infinite}
.b1{animation:brN 1.9s ease-in-out 0s infinite}
.b2{animation:brN 1.9s ease-in-out .3s infinite}
.b3{animation:brN 1.9s ease-in-out .6s infinite}
.b4{animation:brN 1.9s ease-in-out .9s infinite}
.cur{animation:blink 1.1s step-end infinite}
.f1{animation:dF 1.6s linear infinite}
.f2{animation:dF 2.0s linear infinite}
.f3{animation:dF 2.4s linear infinite}
.sc{animation:scL 3.5s linear infinite}
.sp{animation:speechGlowPulse 3s ease-in-out infinite}
.th{animation:thoughtFloat 3.5s ease-in-out infinite}
.lh{animation:typeHand 0.8s ease-in-out infinite}
.rh{animation:typeHand 0.8s ease-in-out 0.15s infinite}
.cof{animation:cofGlow 2.5s ease-in-out infinite}
.lts{animation:letsBuild 4s ease-in-out infinite}
.c1{animation:tl1 8s ease-in-out infinite}
.c2{animation:tl2 8s ease-in-out infinite}
.c3{animation:tl3 8s ease-in-out infinite}
.c4{animation:tl4 8s ease-in-out infinite}
.c5{animation:tl5 8s ease-in-out infinite}
.c6{animation:tl6 8s ease-in-out infinite}
.c7{animation:tl7 8s ease-in-out infinite}
.c8{animation:tl8 8s ease-in-out infinite}
.c9{animation:tl9 8s ease-in-out infinite}
.t1{animation:tt1 6s ease-in-out infinite}
.t2{animation:tt2 6s ease-in-out infinite}
.t3{animation:tt3 6s ease-in-out infinite}
.t4{animation:tt4 6s ease-in-out infinite}
.t5{animation:tt5 6s ease-in-out infinite}
.t6{animation:tt6 6s ease-in-out infinite}
</style>

<!-- BG -->
<rect width="900" height="500" fill="#070B15"/>
<line x1="0" y1="125" x2="900" y2="125" stroke="white" stroke-opacity="0.012" stroke-width="1"/>
<line x1="0" y1="250" x2="900" y2="250" stroke="white" stroke-opacity="0.012" stroke-width="1"/>
<line x1="0" y1="375" x2="900" y2="375" stroke="white" stroke-opacity="0.012" stroke-width="1"/>
<line x1="225" y1="0" x2="225" y2="500" stroke="white" stroke-opacity="0.01" stroke-width="1"/>
<line x1="450" y1="0" x2="450" y2="500" stroke="white" stroke-opacity="0.01" stroke-width="1"/>
<line x1="675" y1="0" x2="675" y2="500" stroke="white" stroke-opacity="0.01" stroke-width="1"/>
<rect x="0" y="0" width="900" height="2" fill="url(#eT)"/>
<rect x="0" y="498" width="900" height="2" fill="url(#eB)"/>
<path d="M26 40 L26 16 L50 16" fill="none" stroke="#3AAFCC" stroke-opacity="0.55" stroke-width="1.5" stroke-linecap="round" stroke-linejoin="round"/>
<path d="M874 40 L874 16 L850 16" fill="none" stroke="#3AAFCC" stroke-opacity="0.55" stroke-width="1.5" stroke-linecap="round" stroke-linejoin="round"/>
<path d="M26 460 L26 484 L50 484" fill="none" stroke="#3AAFCC" stroke-opacity="0.18" stroke-width="1.5" stroke-linecap="round" stroke-linejoin="round"/>
<path d="M874 460 L874 484 L850 484" fill="none" stroke="#3AAFCC" stroke-opacity="0.18" stroke-width="1.5" stroke-linecap="round" stroke-linejoin="round"/>
<text x="450" y="32" text-anchor="middle" font-family="'Courier New',monospace" font-size="9" fill="#154F66" letter-spacing="5">AZHAR SHAKEEL  ·  MULTI-LLM ARCHITECTURE</text>

<!-- BRAIN -->
<circle cx="48" cy="148" r="5" fill="#7C3AED" class="b1"/>
<circle cx="66" cy="134" r="3.5" fill="#7C3AED" class="b2"/>
<circle cx="66" cy="162" r="4" fill="#7C3AED" class="b3"/>
<circle cx="84" cy="142" r="5.5" fill="#9B4AFF" class="b1"/>
<circle cx="84" cy="120" r="3" fill="#7C3AED" class="b4"/>
<circle cx="84" cy="165" r="3" fill="#7C3AED" class="b2"/>
<circle cx="102" cy="132" r="4" fill="#7C3AED" class="b3"/>
<circle cx="102" cy="154" r="3.5" fill="#7C3AED" class="b4"/>
<circle cx="118" cy="143" r="4.5" fill="#9B4AFF" class="b1"/>
<line x1="48" y1="148" x2="66" y2="134" stroke="#7C3AED" stroke-width="0.8" stroke-opacity="0.5"/>
<line x1="48" y1="148" x2="66" y2="162" stroke="#7C3AED" stroke-width="0.8" stroke-opacity="0.5"/>
<line x1="66" y1="134" x2="84" y2="142" stroke="#7C3AED" stroke-width="0.8" stroke-opacity="0.5"/>
<line x1="66" y1="162" x2="84" y2="142" stroke="#7C3AED" stroke-width="0.8" stroke-opacity="0.5"/>
<line x1="84" y1="142" x2="102" y2="132" stroke="#7C3AED" stroke-width="0.8" stroke-opacity="0.5"/>
<line x1="84" y1="142" x2="102" y2="154" stroke="#7C3AED" stroke-width="0.8" stroke-opacity="0.5"/>
<line x1="102" y1="132" x2="118" y2="143" stroke="#7C3AED" stroke-width="0.8" stroke-opacity="0.5"/>
<line x1="102" y1="154" x2="118" y2="143" stroke="#7C3AED" stroke-width="0.8" stroke-opacity="0.5"/>
<text x="84" y="188" text-anchor="middle" font-family="'Courier New',monospace" font-size="7" fill="#7C3AED" letter-spacing="1">BRAIN</text>
<line x1="126" y1="143" x2="150" y2="118" stroke="#7C3AED" stroke-width="1" stroke-opacity="0.45" stroke-dasharray="4,3" class="f1"/>
<line x1="126" y1="143" x2="150" y2="143" stroke="#7C3AED" stroke-width="1" stroke-opacity="0.45" stroke-dasharray="4,3" class="f2"/>
<line x1="126" y1="143" x2="150" y2="168" stroke="#7C3AED" stroke-width="1" stroke-opacity="0.45" stroke-dasharray="4,3" class="f3"/>

<!-- LLM CARDS -->
<rect x="150" y="103" width="88" height="30" rx="6" fill="#0A1828" stroke="#3AAFCC" stroke-width="1" class="l1"/>
<circle cx="164" cy="118" r="6.5" fill="#0D2030" stroke="#3AAFCC" stroke-width="0.8"/>
<text x="164" y="122" text-anchor="middle" font-family="'Courier New',monospace" font-size="8" fill="#3AAFCC">&#x25C8;</text>
<text x="196" y="115" font-family="'Courier New',monospace" font-size="7.5" fill="#3AAFCC" font-weight="700">Claude</text>
<text x="196" y="126" font-family="'Courier New',monospace" font-size="6" fill="#1A5070">Anthropic</text>
<rect x="150" y="129" width="88" height="30" rx="6" fill="#0A1828" stroke="#10B981" stroke-width="1" class="l2"/>
<circle cx="164" cy="144" r="6.5" fill="#0D2218" stroke="#10B981" stroke-width="0.8"/>
<text x="164" y="148" text-anchor="middle" font-family="'Courier New',monospace" font-size="8" fill="#10B981">&#x2B21;</text>
<text x="196" y="141" font-family="'Courier New',monospace" font-size="7.5" fill="#10B981" font-weight="700">GPT-4o</text>
<text x="196" y="152" font-family="'Courier New',monospace" font-size="6" fill="#0D4030">OpenAI</text>
<rect x="150" y="155" width="88" height="30" rx="6" fill="#0A1828" stroke="#2563EB" stroke-width="1" class="l3"/>
<circle cx="164" cy="170" r="6.5" fill="#0A1430" stroke="#2563EB" stroke-width="0.8"/>
<text x="164" y="174" text-anchor="middle" font-family="'Courier New',monospace" font-size="8" fill="#2563EB">&#x2736;</text>
<text x="196" y="167" font-family="'Courier New',monospace" font-size="7.5" fill="#2563EB" font-weight="700">Gemini</text>
<text x="196" y="178" font-family="'Courier New',monospace" font-size="6" fill="#0D2060">Google</text>
<path d="M238 118 Q268 118 268 95 Q268 76 278 72" fill="none" stroke="#3AAFCC" stroke-width="1.1" stroke-opacity="0.55" stroke-dasharray="5,3" class="f1"/>
<path d="M238 144 Q264 144 264 106 Q264 80 278 75" fill="none" stroke="#10B981" stroke-width="1.1" stroke-opacity="0.5" stroke-dasharray="5,3" class="f2"/>
<path d="M238 170 Q260 170 260 118 Q260 83 278 78" fill="none" stroke="#2563EB" stroke-width="1.1" stroke-opacity="0.5" stroke-dasharray="5,3" class="f3"/>

<!-- MONITOR -->
<ellipse cx="445" cy="196" rx="218" ry="145" fill="url(#monGlow)" filter="url(#monShadow)"/>
<rect x="278" y="48" width="384" height="276" rx="10" fill="url(#monG)" stroke="#1A3A5A" stroke-width="1.5"/>
<rect x="278" y="48" width="384" height="276" rx="10" fill="none" stroke="#3AAFCC" stroke-width="0.4" stroke-opacity="0.3"/>
<rect x="286" y="56" width="368" height="260" rx="7" fill="url(#scrG)"/>
<!-- sidebar -->
<rect x="286" y="56" width="28" height="260" fill="#080E18"/>
<rect x="293" y="70" width="14" height="14" rx="3" fill="#1A3A5A"/>
<rect x="293" y="90" width="14" height="14" rx="3" fill="#1A3A5A"/>
<rect x="293" y="110" width="14" height="14" rx="3" fill="#0E2030"/>
<text x="300" y="81" text-anchor="middle" font-family="system-ui" font-size="8" fill="#3AAFCC">&#x2B21;</text>
<text x="300" y="101" text-anchor="middle" font-family="system-ui" font-size="8" fill="#3AAFCC">&#x229E;</text>
<text x="300" y="121" text-anchor="middle" font-family="system-ui" font-size="8" fill="#2E7A96">&#x2318;</text>
<rect x="293" y="288" width="14" height="14" rx="3" fill="#0E2030"/>
<text x="300" y="299" text-anchor="middle" font-family="system-ui" font-size="8" fill="#2E7A96">&#x2699;</text>
<!-- file explorer -->
<rect x="314" y="56" width="88" height="260" fill="#090F1A"/>
<line x1="402" y1="56" x2="402" y2="316" stroke="#1A3A5A" stroke-width="0.8"/>
<text x="320" y="70" font-family="'Courier New',monospace" font-size="6.5" fill="#2E7A96" letter-spacing="1">EXPLORER</text>
<line x1="314" y1="75" x2="402" y2="75" stroke="#1A3A5A" stroke-width="0.5"/>
<text x="320" y="88" font-family="'Courier New',monospace" font-size="6.5" fill="#1A5070">&#x25BE; radiant/</text>
<text x="328" y="100" font-family="'Courier New',monospace" font-size="6.5" fill="#3AAFCC">  mind.py</text>
<text x="328" y="112" font-family="'Courier New',monospace" font-size="6.5" fill="#6B8BAA">  agro.py</text>
<text x="328" y="124" font-family="'Courier New',monospace" font-size="6.5" fill="#6B8BAA">  fit.py</text>
<text x="320" y="136" font-family="'Courier New',monospace" font-size="6.5" fill="#1A5070">&#x25BE; models/</text>
<text x="328" y="148" font-family="'Courier New',monospace" font-size="6.5" fill="#6B8BAA">  llm.py</text>
<text x="328" y="160" font-family="'Courier New',monospace" font-size="6.5" fill="#6B8BAA">  vision.py</text>
<text x="328" y="172" font-family="'Courier New',monospace" font-size="6.5" fill="#F59E0B">  train.py</text>
<text x="320" y="184" font-family="'Courier New',monospace" font-size="6.5" fill="#1A5070">&#x25BE; utils/</text>
<text x="328" y="196" font-family="'Courier New',monospace" font-size="6.5" fill="#6B8BAA">  config.py</text>
<text x="328" y="208" font-family="'Courier New',monospace" font-size="6.5" fill="#6B8BAA">  api.py</text>
<!-- editor -->
<rect x="402" y="56" width="252" height="260" fill="#050B14"/>
<rect x="402" y="56" width="252" height="18" fill="#080E18"/>
<rect x="402" y="56" width="60" height="18" fill="#050B14"/>
<text x="416" y="68" font-family="'Courier New',monospace" font-size="6.5" fill="#3AAFCC">mind.py</text>
<text x="472" y="68" font-family="'Courier New',monospace" font-size="6.5" fill="#6B8BAA">llm.py</text>
<line x1="402" y1="74" x2="654" y2="74" stroke="#1A3A5A" stroke-width="0.8"/>
<rect x="402" y="74" width="18" height="242" fill="#060C14"/>
<rect x="420" y="74" width="234" height="2" fill="#3AAFCC" class="sc"/>
<!-- code lines with typewriter animation -->
<g class="c1"><text x="405" y="87" font-family="'Courier New',monospace" font-size="6.5" fill="#1A3A50">1</text><text x="424" y="87" font-family="'Courier New',monospace" font-size="7.5" fill="#2563EB">import</text><text x="458" y="87" font-family="'Courier New',monospace" font-size="7.5" fill="#6B8BAA"> anthropic, openai, torch</text></g>
<g class="c2"><text x="405" y="99" font-family="'Courier New',monospace" font-size="6.5" fill="#1A3A50">2</text><text x="424" y="99" font-family="'Courier New',monospace" font-size="7.5" fill="#2563EB">from</text><text x="448" y="99" font-family="'Courier New',monospace" font-size="7.5" fill="#6B8BAA"> radiant.core </text><text x="522" y="99" font-family="'Courier New',monospace" font-size="7.5" fill="#2563EB">import</text><text x="556" y="99" font-family="'Courier New',monospace" font-size="7.5" fill="#3AAFCC"> Mind</text></g>
<g class="c3"><text x="405" y="111" font-family="'Courier New',monospace" font-size="6.5" fill="#1A3A50">3</text><text x="424" y="111" font-family="'Courier New',monospace" font-size="7.5" fill="#1A3A50" opacity="0.3">&#x2500;&#x2500;&#x2500;&#x2500;&#x2500;&#x2500;&#x2500;&#x2500;&#x2500;&#x2500;&#x2500;&#x2500;&#x2500;&#x2500;&#x2500;&#x2500;&#x2500;&#x2500;&#x2500;&#x2500;</text></g>
<g class="c4"><rect x="420" y="114" width="234" height="13" fill="#3AAFCC" fill-opacity="0.06"/><text x="405" y="125" font-family="'Courier New',monospace" font-size="6.5" fill="#3AAFCC">4</text><text x="424" y="125" font-family="'Courier New',monospace" font-size="7.5" fill="#7C3AED">class</text><text x="452" y="125" font-family="'Courier New',monospace" font-size="7.5" fill="#F59E0B"> AzharMind</text><text x="510" y="125" font-family="'Courier New',monospace" font-size="7.5" fill="#6B8BAA">(Mind):</text></g>
<g class="c5"><text x="405" y="137" font-family="'Courier New',monospace" font-size="6.5" fill="#1A3A50">5</text><text x="424" y="137" font-family="'Courier New',monospace" font-size="7.5" fill="#7C3AED">  def</text><text x="450" y="137" font-family="'Courier New',monospace" font-size="7.5" fill="#3AAFCC"> think</text><text x="478" y="137" font-family="'Courier New',monospace" font-size="7.5" fill="#6B8BAA">(self, prompt):</text></g>
<g class="c6"><text x="405" y="149" font-family="'Courier New',monospace" font-size="6.5" fill="#1A3A50">6</text><text x="424" y="149" font-family="'Courier New',monospace" font-size="7.5" fill="#6B8BAA">    models = [</text></g>
<g class="c7"><text x="405" y="161" font-family="'Courier New',monospace" font-size="6.5" fill="#1A3A50">7</text><text x="424" y="161" font-family="'Courier New',monospace" font-size="7.5" fill="#10B981">      "claude-3-5",</text></g>
<g class="c8"><text x="405" y="173" font-family="'Courier New',monospace" font-size="6.5" fill="#1A3A50">8</text><text x="424" y="173" font-family="'Courier New',monospace" font-size="7.5" fill="#F59E0B">      "gpt-4o",</text><text x="405" y="185" font-family="'Courier New',monospace" font-size="6.5" fill="#1A3A50">9</text><text x="424" y="185" font-family="'Courier New',monospace" font-size="7.5" fill="#2563EB">      "gemini-pro",</text></g>
<g class="c9"><text x="403" y="197" font-family="'Courier New',monospace" font-size="6.5" fill="#1A3A50">10</text><text x="424" y="197" font-family="'Courier New',monospace" font-size="7.5" fill="#6B8BAA">    ]</text><text x="403" y="209" font-family="'Courier New',monospace" font-size="6.5" fill="#1A3A50">11</text><text x="424" y="209" font-family="'Courier New',monospace" font-size="7.5" fill="#7C3AED">    return</text><text x="468" y="209" font-family="'Courier New',monospace" font-size="7.5" fill="#6B8BAA"> self._ensemble(</text><text x="403" y="221" font-family="'Courier New',monospace" font-size="6.5" fill="#1A3A50">12</text><text x="424" y="221" font-family="'Courier New',monospace" font-size="7.5" fill="#6B8BAA">        models, prompt</text><text x="403" y="233" font-family="'Courier New',monospace" font-size="6.5" fill="#1A3A50">13</text><text x="424" y="233" font-family="'Courier New',monospace" font-size="7.5" fill="#6B8BAA">    )</text></g>
<!-- cursor -->
<rect x="424" y="239" width="5" height="10" rx="1" fill="#3AAFCC" class="cur"/>
<!-- status bar -->
<rect x="286" y="308" width="368" height="8" fill="#0A1824"/>
<line x1="286" y1="308" x2="654" y2="308" stroke="#1A3A5A" stroke-width="0.5"/>
<text x="294" y="315" font-family="'Courier New',monospace" font-size="5.5" fill="#1A5070">Python 3.11  &#xB7;  UTF-8  &#xB7;  Ln 13  &#xB7;  azhar@radiant</text>
<rect x="608" y="309" width="7" height="7" fill="#10B981" opacity="0.8"><animate attributeName="opacity" values="0.8;0.3;0.8" dur="2s" repeatCount="indefinite"/></rect>
<text x="619" y="315" font-family="'Courier New',monospace" font-size="5.5" fill="#10B981">LLM: Active</text>
<!-- monitor stand -->
<rect x="416" y="324" width="58" height="10" rx="3" fill="#0D1E2E" stroke="#1A3A4A" stroke-width="1"/>
<rect x="400" y="332" width="90" height="7" rx="3.5" fill="#0A1828" stroke="#1A3A4A" stroke-width="1"/>

<!-- LAPTOP -->
<rect x="668" y="222" width="200" height="124" rx="8" fill="url(#lapG)" stroke="#1A3A5A" stroke-width="1.2"/>
<rect x="676" y="230" width="184" height="108" rx="5" fill="#040910"/>
<rect x="676" y="230" width="184" height="16" rx="5" fill="#080E18"/>
<circle cx="688" cy="238" r="3" fill="#9F1239" opacity="0.8"/>
<circle cx="698" cy="238" r="3" fill="#F59E0B" opacity="0.8"/>
<circle cx="708" cy="238" r="3" fill="#10B981" opacity="0.8"/>
<text x="755" y="241" text-anchor="middle" font-family="'Courier New',monospace" font-size="6" fill="#1A4060">terminal</text>
<!-- terminal lines animated -->
<text x="682" y="258" font-family="'Courier New',monospace" font-size="7" fill="#10B981" class="t1">$ python mind.py</text>
<text x="682" y="270" font-family="'Courier New',monospace" font-size="7" fill="#6B8BAA" class="t2">Loading models...</text>
<text x="682" y="282" font-family="'Courier New',monospace" font-size="7" fill="#3AAFCC" class="t3">&#x2713; Claude: ready</text>
<text x="682" y="294" font-family="'Courier New',monospace" font-size="7" fill="#F59E0B" class="t4">&#x2713; GPT-4o: ready</text>
<text x="682" y="306" font-family="'Courier New',monospace" font-size="7" fill="#2563EB" class="t5">&#x2713; Gemini: ready</text>
<text x="682" y="318" font-family="'Courier New',monospace" font-size="7" fill="#7C3AED" class="t6">&#x25B6; Ensemble: running</text>
<text x="682" y="330" font-family="'Courier New',monospace" font-size="7" fill="#3AAFCC" class="cur">&#x2588;</text>
<!-- laptop base -->
<rect x="660" y="346" width="216" height="13" rx="5" fill="url(#lapG)" stroke="#1A3A5A" stroke-width="1"/>
<rect x="674" y="348" width="186" height="7" rx="2" fill="#060E18"/>
<line x1="700" y1="348" x2="700" y2="355" stroke="#1A3A5A" stroke-width="0.5"/>
<line x1="726" y1="348" x2="726" y2="355" stroke="#1A3A5A" stroke-width="0.5"/>
<line x1="752" y1="348" x2="752" y2="355" stroke="#1A3A5A" stroke-width="0.5"/>
<line x1="778" y1="348" x2="778" y2="355" stroke="#1A3A5A" stroke-width="0.5"/>
<line x1="804" y1="348" x2="804" y2="355" stroke="#1A3A5A" stroke-width="0.5"/>

<!-- DESK -->
<rect x="28" y="360" width="844" height="28" rx="5" fill="url(#deskG)" stroke="#0E1E2E" stroke-width="1"/>
<line x1="28" y1="362" x2="872" y2="362" stroke="#1A3A50" stroke-width="0.8" stroke-opacity="0.5"/>
<rect x="28" y="360" width="844" height="3" fill="#1A3A50" opacity="0.22"/>
<rect x="58" y="388" width="10" height="50" rx="3" fill="#0A1828"/>
<rect x="832" y="388" width="10" height="50" rx="3" fill="#0A1828"/>
<!-- notebook -->
<rect x="46" y="330" width="58" height="32" rx="3" fill="#0A1520" stroke="#142840" stroke-width="1"/>
<rect x="46" y="330" width="6" height="32" rx="2" fill="#1A3A5A"/>
<line x1="56" y1="338" x2="96" y2="338" stroke="#1A3A50" stroke-width="0.8"/>
<line x1="56" y1="344" x2="96" y2="344" stroke="#1A3A50" stroke-width="0.8"/>
<line x1="56" y1="350" x2="78" y2="350" stroke="#1A3A50" stroke-width="0.8"/>

<!-- COFFEE MUG with glow -->
<g class="cof">
<rect x="118" y="308" width="54" height="54" rx="10" fill="#0E1C2C" stroke="#1C3A5A" stroke-width="1.4"/>
<rect x="125" y="315" width="40" height="40" rx="7" fill="#06101A"/>
<ellipse cx="145" cy="318" rx="18" ry="6" fill="url(#cofTop)"/>
<ellipse cx="139" cy="316" rx="7" ry="2.5" fill="#7A4010" opacity="0.5"/>
<path d="M165 322 Q181 322 181 334 Q181 347 165 347" fill="none" stroke="#1C3A5A" stroke-width="3" stroke-linecap="round"/>
<rect x="112" y="360" width="66" height="5" rx="2.5" fill="#0B1C2C"/>
<rect x="127" y="330" width="37" height="14" rx="3" fill="#0A1828" stroke="#3AAFCC" stroke-width="0.6"/>
<text x="146" y="341" text-anchor="middle" font-family="'Courier New',monospace" font-size="7" fill="#2E7A96">ASD &#x2615;</text>
</g>
<!-- steam -->
<path d="M133 308 Q136 296 133 284" fill="none" stroke="#3AAFCC" stroke-width="1.5" stroke-linecap="round" class="st1"/>
<path d="M145 306 Q148 293 145 280" fill="none" stroke="#3AAFCC" stroke-width="1.3" stroke-linecap="round" class="st2"/>
<path d="M157 308 Q160 296 157 284" fill="none" stroke="#3AAFCC" stroke-width="1.1" stroke-linecap="round" class="st3"/>

<!-- CHAIR -->
<rect x="224" y="274" width="56" height="88" rx="8" fill="#0C1C2E" stroke="#1A3A5A" stroke-width="1.2"/>
<rect x="229" y="279" width="46" height="78" rx="6" fill="#0A1828"/>
<rect x="214" y="358" width="76" height="16" rx="6" fill="#0C1C2E" stroke="#1A3A5A" stroke-width="1"/>
<rect x="220" y="372" width="8" height="36" rx="3" fill="#0A1520"/>
<rect x="276" y="372" width="8" height="36" rx="3" fill="#0A1520"/>
<rect x="208" y="396" width="88" height="7" rx="3" fill="#0A1520"/>
<rect x="216" y="404" width="8" height="28" rx="3" fill="#0A1520"/>
<rect x="280" y="404" width="8" height="28" rx="3" fill="#0A1520"/>

<!-- ARMS with typing animation -->
<g class="lh">
  <path d="M243 328 C228 342 212 352 194 360" stroke="#A04020" stroke-width="18" stroke-linecap="round" fill="none"/>
  <ellipse cx="192" cy="361" rx="11" ry="9" fill="#D4906A"/>
  <path d="M185 356 Q192 352 196 358" fill="none" stroke="#C07858" stroke-width="2.5" stroke-linecap="round"/>
  <path d="M184 362 Q192 358 197 364" fill="none" stroke="#C07858" stroke-width="2" stroke-linecap="round"/>
</g>
<g class="rh">
  <path d="M261 328 C276 342 290 352 306 360" stroke="#A04020" stroke-width="18" stroke-linecap="round" fill="none"/>
  <ellipse cx="308" cy="361" rx="11" ry="9" fill="#D4906A"/>
  <path d="M301 356 Q308 352 315 358" fill="none" stroke="#C07858" stroke-width="2.5" stroke-linecap="round"/>
  <path d="M300 362 Q308 358 315 364" fill="none" stroke="#C07858" stroke-width="2" stroke-linecap="round"/>
</g>
<!-- tattoo -->
<path d="M216 344 Q221 351 226 344" fill="none" stroke="#7C3AED" stroke-width="2" stroke-opacity="0.8"/>
<path d="M214 353 Q219 359 224 353" fill="none" stroke="#7C3AED" stroke-width="1.5" stroke-opacity="0.55"/>

<!-- SHIRT -->
<path d="M236 302 L236 362 Q236 370 252 370 Q268 370 268 362 L268 302 Z" fill="#A04020"/>
<path d="M244 302 L252 322 L260 302" fill="none" stroke="#7A2A10" stroke-width="2.5" stroke-linejoin="round"/>

<!-- NECK -->
<rect x="244" y="282" width="20" height="22" rx="8" fill="#D4906A"/>

<!-- HEAD -->
<ellipse cx="254" cy="258" rx="30" ry="32" fill="url(#skinG)"/>
<ellipse cx="224" cy="262" rx="7.5" ry="12" fill="#D4906A"/>
<ellipse cx="284" cy="262" rx="7.5" ry="12" fill="#D4906A"/>
<ellipse cx="224" cy="262" rx="4" ry="7" fill="#C07858" opacity="0.4"/>
<ellipse cx="284" cy="262" rx="4" ry="7" fill="#C07858" opacity="0.4"/>

<!-- BEANIE -->
<path d="M226 246 Q232 214 254 208 Q276 214 282 246 Z" fill="#1A1A38"/>
<rect x="224" y="244" width="60" height="13" rx="6.5" fill="#252550"/>
<line x1="237" y1="244" x2="233" y2="226" stroke="#1A1A38" stroke-width="1.8" opacity="0.7"/>
<line x1="248" y1="244" x2="247" y2="212" stroke="#1A1A38" stroke-width="1.8" opacity="0.7"/>
<line x1="260" y1="244" x2="261" y2="212" stroke="#1A1A38" stroke-width="1.8" opacity="0.7"/>
<line x1="271" y1="244" x2="275" y2="226" stroke="#1A1A38" stroke-width="1.8" opacity="0.7"/>
<circle cx="254" cy="208" r="8" fill="#3AAFCC" opacity="0.65"/>
<circle cx="254" cy="208" r="4.5" fill="#3AAFCC" opacity="0.35"/>

<!-- FACE -->
<path d="M234 249 Q241 244 249 249" fill="none" stroke="#4A2800" stroke-width="2.2" stroke-linecap="round"/>
<path d="M259 249 Q267 244 274 249" fill="none" stroke="#4A2800" stroke-width="2.2" stroke-linecap="round"/>
<rect x="232" y="252" width="20" height="15" rx="5.5" fill="#08121E" stroke="#111111" stroke-width="2.2" opacity="0.92"/>
<rect x="256" y="252" width="20" height="15" rx="5.5" fill="#08121E" stroke="#111111" stroke-width="2.2" opacity="0.92"/>
<line x1="252" y1="259" x2="256" y2="259" stroke="#111111" stroke-width="2"/>
<line x1="232" y1="259" x2="224" y2="262" stroke="#111111" stroke-width="2"/>
<line x1="276" y1="259" x2="284" y2="262" stroke="#111111" stroke-width="2"/>
<circle cx="242" cy="260" r="5.5" fill="#FAFAFA"/>
<circle cx="266" cy="260" r="5.5" fill="#FAFAFA"/>
<circle cx="243" cy="261" r="3" fill="#1A1A1A"/>
<circle cx="267" cy="261" r="3" fill="#1A1A1A"/>
<circle cx="244.5" cy="259" r="1.3" fill="white"/>
<circle cx="268.5" cy="259" r="1.3" fill="white"/>
<ellipse cx="254" cy="270" rx="3.2" ry="2.2" fill="#C07858" opacity="0.5"/>
<path d="M246 277 Q254 286 262 279" fill="none" stroke="#9A5035" stroke-width="2.2" stroke-linecap="round"/>

<!-- THOUGHT BUBBLE with float + glow -->
<g class="th" filter="url(#thoughtGlow)">
  <circle cx="274" cy="244" r="3.5" fill="#0D2030" stroke="#3AAFCC" stroke-width="0.9" stroke-opacity="0.6"/>
  <circle cx="284" cy="232" r="5" fill="#0D2030" stroke="#3AAFCC" stroke-width="0.9" stroke-opacity="0.6"/>
  <circle cx="296" cy="219" r="7" fill="#0D2030" stroke="#3AAFCC" stroke-width="0.9" stroke-opacity="0.6"/>
  <rect x="302" y="180" width="148" height="52" rx="18" fill="#0B1D2E" stroke="#3AAFCC" stroke-width="1.2"/>
  <rect x="307" y="185" width="138" height="42" rx="15" fill="none" stroke="#3AAFCC" stroke-width="0.5" stroke-opacity="0.35"/>
  <text x="376" y="200" text-anchor="middle" font-family="'Courier New',monospace" font-size="7" fill="#2E7A96" letter-spacing="1">ENSEMBLE THINKING</text>
  <text x="376" y="213" text-anchor="middle" font-family="'Courier New',monospace" font-size="8.5" fill="#3AAFCC" font-weight="700">Claude+GPT+Gemini</text>
  <text x="376" y="225" text-anchor="middle" font-family="Georgia,serif" font-size="7.5" fill="#1A4A68" font-style="italic">intelligence compounds.</text>
</g>

<!-- SPEECH BUBBLE with glow on/off -->
<g class="sp" filter="url(#speechGlow)">
  <polygon points="270,278 282,295 296,272" fill="#0C2030" stroke="#3AAFCC" stroke-width="0.9"/>
  <rect x="290" y="250" width="192" height="42" rx="12" fill="#0C2030" stroke="#3AAFCC" stroke-width="1.5"/>
  <rect x="295" y="255" width="182" height="32" rx="10" fill="none" stroke="#3AAFCC" stroke-width="0.5" stroke-opacity="0.4"/>
</g>
<!-- speech text with flash -->
<text x="386" y="269" text-anchor="middle" font-family="'Courier New',monospace" font-size="8.5" fill="#3AAFCC" font-weight="700" class="lts">Let's build something</text>
<text x="386" y="284" text-anchor="middle" font-family="'Courier New',monospace" font-size="8.5" fill="#F59E0B" font-weight="700" class="lts">extraordinary. &#x1F680;</text>

<!-- KEYBOARD -->
<rect x="170" y="352" width="168" height="10" rx="3" fill="#0A1620" stroke="#1A3245" stroke-width="0.8"/>
<rect x="174" y="354" width="160" height="6" rx="2" fill="#060E18"/>
<line x1="196" y1="354" x2="196" y2="360" stroke="#1A3245" stroke-width="0.5"/>
<line x1="216" y1="354" x2="216" y2="360" stroke="#1A3245" stroke-width="0.5"/>
<line x1="236" y1="354" x2="236" y2="360" stroke="#1A3245" stroke-width="0.5"/>
<line x1="256" y1="354" x2="256" y2="360" stroke="#1A3245" stroke-width="0.5"/>
<line x1="276" y1="354" x2="276" y2="360" stroke="#1A3245" stroke-width="0.5"/>
<line x1="296" y1="354" x2="296" y2="360" stroke="#1A3245" stroke-width="0.5"/>
<line x1="316" y1="354" x2="316" y2="360" stroke="#1A3245" stroke-width="0.5"/>

<!-- BOTTOM -->
<text x="450" y="422" text-anchor="middle" font-family="Georgia,'Times New Roman',serif" font-size="12.5" fill="#3A8AA8" font-style="italic">Build with precision. Think with depth. Outlast everything.</text>
<text x="450" y="444" text-anchor="middle" font-family="'Courier New',monospace" font-size="7" fill="#0E2233" letter-spacing="2">CC BY-NC 4.0  &#xB7;  &#xA9; 2026 AZHAR SHAKEEL  &#xB7;  ALL RIGHTS RESERVED</text>
</svg>
